<?xml version="1.0" standalone="no"?>
<!DOCTYPE svg PUBLIC "-//W3C//DTD SVG 20010904//EN"
 "http://www.w3.org/TR/2001/REC-SVG-20010904/DTD/svg10.dtd">
<svg version="1.0" xmlns="http://www.w3.org/2000/svg"
 width="958.000000pt" height="958.000000pt" viewBox="0 0 958.000000 958.000000"
 preserveAspectRatio="xMidYMid meet">
<metadata>
Created by potrace 1.11, written by Peter Selinger 2001-2013
</metadata>
<g transform="translate(0.000000,958.000000) scale(0.100000,-0.100000)"
fill="#000000" stroke="none">
<path d="M6005 9561 c-6 -4 -32 -17 -60 -27 -27 -10 -52 -20 -55 -24 -3 -3
-32 -16 -65 -29 -33 -13 -87 -36 -120 -51 -83 -38 -142 -63 -195 -85 -25 -10
-65 -27 -90 -37 -25 -11 -58 -26 -75 -33 -16 -7 -52 -23 -80 -36 -27 -12 -54
-24 -60 -25 -5 -1 -77 -32 -158 -68 -81 -36 -152 -66 -157 -66 -6 0 -10 -5
-10 -11 0 -5 -4 -8 -8 -5 -5 3 -20 -1 -35 -9 -14 -7 -28 -11 -31 -7 -3 3 -6 0
-6 -6 0 -7 -3 -11 -7 -10 -5 0 -24 -6 -44 -15 -20 -9 -42 -17 -50 -19 -8 -2
-16 -5 -19 -8 -4 -5 -77 -38 -165 -75 -16 -7 -51 -22 -77 -34 -26 -11 -50 -21
-52 -21 -3 0 -35 -14 -73 -31 -37 -16 -77 -34 -88 -39 -11 -5 -42 -19 -70 -31
-27 -13 -53 -23 -57 -23 -3 -1 -10 -4 -14 -8 -4 -5 -13 -8 -20 -8 -7 0 -45
-15 -86 -34 -40 -18 -102 -46 -138 -61 -66 -27 -80 -33 -185 -80 -33 -15 -98
-43 -145 -62 -47 -20 -112 -48 -145 -63 -33 -15 -105 -47 -160 -70 -55 -23
-124 -53 -153 -66 -29 -13 -55 -24 -57 -24 -3 0 -24 -8 -48 -19 -23 -10 -73
-32 -112 -49 -38 -16 -124 -53 -190 -82 -66 -29 -151 -66 -190 -82 -38 -16
-78 -33 -87 -39 -10 -5 -25 -9 -33 -9 -8 0 -15 -5 -15 -12 0 -6 -3 -9 -6 -5
-3 3 -22 -3 -42 -13 -21 -10 -55 -26 -77 -35 -22 -9 -49 -21 -60 -26 -11 -4
-46 -19 -77 -33 -61 -26 -67 -35 -43 -60 8 -8 15 -17 15 -19 0 -3 26 -46 57
-96 32 -51 65 -104 73 -119 8 -15 17 -29 20 -32 3 -3 36 -57 74 -120 38 -63
73 -117 76 -120 4 -3 9 -12 13 -20 3 -8 34 -58 67 -110 72 -114 96 -158 88
-165 -3 -4 -16 -8 -29 -9 -13 -2 -35 -6 -49 -9 -14 -4 -41 -8 -60 -11 -19 -3
-44 -7 -55 -9 -11 -2 -47 -8 -80 -12 -32 -4 -68 -9 -80 -11 -11 -2 -36 -7 -55
-10 -19 -2 -48 -8 -65 -11 -16 -3 -41 -7 -55 -8 -46 -5 -112 -15 -119 -19 -3
-2 -33 -7 -66 -11 -32 -3 -62 -8 -65 -10 -3 -2 -33 -6 -65 -10 -33 -3 -68 -9
-77 -11 -24 -7 -259 -45 -280 -45 -24 0 -23 -13 11 -105 15 -43 54 -151 86
-239 32 -88 64 -175 72 -194 8 -18 16 -39 17 -45 1 -6 4 -15 8 -21 3 -5 11
-27 16 -48 9 -33 8 -39 -6 -44 -9 -4 -19 -9 -22 -12 -5 -6 -38 -25 -85 -50
-16 -9 -33 -20 -37 -26 -5 -7 -8 -7 -8 0 0 6 -4 5 -8 -2 -4 -6 -14 -13 -22
-15 -8 -2 -22 -10 -30 -18 -8 -8 -20 -16 -25 -17 -6 -1 -41 -20 -78 -42 -36
-23 -71 -41 -77 -41 -5 0 -10 -4 -10 -10 0 -5 -5 -10 -10 -10 -6 0 -35 -16
-65 -35 -30 -19 -55 -32 -55 -28 0 3 -8 -1 -17 -9 -18 -15 -139 -88 -248 -148
-33 -18 -63 -38 -67 -44 -4 -6 -8 -8 -8 -4 0 6 -104 -54 -180 -102 -8 -6 -22
-13 -30 -17 -8 -4 -42 -23 -76 -44 -33 -20 -70 -40 -82 -43 -12 -4 -22 -12
-22 -17 0 -6 -5 -7 -10 -4 -6 3 -13 0 -16 -8 -3 -9 -16 -18 -30 -21 -30 -8
-31 -29 -1 -49 12 -8 52 -44 88 -79 37 -34 108 -101 159 -148 51 -47 120 -111
152 -142 33 -31 94 -88 135 -125 81 -72 228 -210 275 -255 15 -16 29 -28 31
-28 2 0 31 -26 64 -57 136 -130 195 -183 204 -183 6 0 7 -4 4 -10 -3 -5 -3
-10 2 -10 4 0 31 -21 59 -47 28 -27 95 -88 148 -138 54 -49 117 -108 140 -130
24 -22 87 -80 141 -130 54 -49 134 -124 179 -166 45 -42 101 -93 125 -115 25
-21 78 -72 119 -112 42 -39 77 -72 79 -72 2 0 23 -19 47 -42 23 -24 66 -65 94
-91 29 -27 52 -56 52 -65 0 -16 -11 -93 -25 -172 -6 -35 -13 -84 -20 -130 -1
-14 -6 -40 -9 -59 -4 -19 -9 -53 -11 -75 -2 -23 -7 -54 -10 -69 -5 -25 -1 -30
32 -43 20 -9 45 -17 55 -19 22 -5 358 -110 416 -131 23 -9 48 -17 55 -18 6 -1
17 -4 22 -7 6 -4 24 -10 40 -14 17 -5 32 -9 35 -10 3 0 46 -14 95 -30 50 -16
92 -30 95 -30 4 -1 320 -102 460 -148 19 -6 37 -12 40 -12 3 0 22 -7 43 -14
34 -11 40 -11 75 10 20 13 167 105 325 206 l289 183 26 -28 c15 -16 54 -59 87
-96 33 -37 74 -82 90 -100 235 -259 233 -256 229 -303 -2 -21 -6 -83 -8 -138
-3 -55 -8 -140 -11 -190 -7 -105 -11 -192 -19 -365 -4 -69 -8 -152 -11 -185
-2 -33 -7 -118 -11 -190 -5 -114 -9 -135 -31 -175 -14 -25 -31 -55 -37 -67 -6
-13 -14 -23 -18 -23 -5 0 -8 -7 -8 -15 0 -8 -3 -15 -8 -15 -4 0 -12 -9 -17
-19 -41 -80 -60 -111 -67 -111 -4 0 -8 -4 -8 -10 0 -5 -45 -81 -100 -170 -55
-88 -100 -162 -100 -166 0 -3 -6 -12 -14 -20 -8 -7 -16 -19 -18 -25 -4 -12
-12 -13 -183 -23 -55 -3 -125 -8 -155 -10 -30 -3 -100 -8 -155 -11 -55 -3
-122 -8 -150 -10 -27 -2 -93 -7 -145 -10 -145 -9 -228 -15 -310 -20 -126 -9
-222 -16 -295 -20 -85 -4 -231 -14 -300 -20 -27 -2 -95 -7 -150 -11 -55 -3
-101 -7 -103 -9 -1 -1 1161 -1 2583 0 2249 1 2787 4 2538 14 -32 1 -76 4 -98
6 -22 3 -83 7 -135 10 -52 3 -131 8 -175 11 -175 11 -223 14 -295 18 -41 3
-109 7 -151 10 -150 10 -374 25 -464 30 -183 11 -345 22 -371 25 -7 0 -12 11
-12 24 -1 30 -8 74 -27 182 -31 174 -34 188 -39 230 -3 17 -7 44 -10 60 -4 17
-9 45 -12 64 -3 18 -8 43 -10 55 -3 11 -7 36 -10 55 -2 19 -7 48 -10 65 -3 17
-7 47 -10 66 -2 19 -6 42 -9 50 -2 8 -7 31 -10 50 -3 19 -7 46 -10 60 -9 47
-17 95 -22 125 -9 63 -12 81 -17 101 -6 29 -17 94 -20 119 -2 11 -6 36 -10 55
-18 87 -17 91 43 160 68 78 80 92 133 150 22 25 59 67 82 94 22 27 59 68 81
92 22 24 58 64 80 89 103 120 137 153 153 149 9 -2 121 -29 247 -60 127 -31
241 -58 255 -60 14 -3 121 -29 237 -58 l213 -52 167 62 c93 34 233 86 313 114
80 29 154 56 165 61 11 5 63 24 115 43 52 18 140 50 195 71 55 20 119 44 143
52 23 9 43 21 44 27 2 15 10 105 23 266 3 36 8 83 10 105 3 22 7 74 10 115 5
102 15 220 21 250 2 14 6 61 9 105 3 44 7 100 10 125 3 25 7 79 9 120 3 41 9
118 15 170 5 52 13 138 16 190 3 52 9 104 12 115 5 16 184 265 263 365 11 14
37 48 57 76 21 27 44 57 50 65 7 7 55 73 107 144 53 72 99 135 104 140 4 6 35
46 67 90 33 44 68 89 78 99 9 11 17 23 17 27 0 4 6 14 13 21 14 14 187 244
200 266 11 17 6 22 -35 32 -29 7 -166 43 -208 54 -8 2 -96 25 -195 51 -99 25
-209 55 -245 65 -36 11 -76 21 -90 24 -14 2 -52 12 -85 21 -33 9 -96 25 -140
37 -44 11 -87 23 -95 26 -8 3 -19 6 -25 7 -14 2 -76 15 -98 21 -18 6 -18 33 3
139 5 28 12 64 15 80 3 17 7 41 10 55 6 26 11 59 21 113 3 17 11 64 19 102 7
39 16 86 19 105 3 19 8 45 10 56 2 12 7 39 11 60 3 22 17 95 30 164 13 69 26
136 29 150 4 28 17 94 23 125 6 36 15 90 18 110 1 11 3 20 4 20 3 0 7 19 21
108 6 40 15 84 20 99 11 35 1 41 -34 22 -16 -7 -32 -14 -36 -14 -5 0 -21 -5
-37 -12 -15 -6 -31 -12 -35 -13 -5 -2 -9 -3 -10 -5 -2 -1 -10 -3 -19 -5 -9 -1
-32 -10 -50 -18 -49 -22 -121 -48 -141 -52 -9 -2 -27 -9 -40 -16 -13 -7 -25
-12 -28 -12 -7 1 -31 -7 -55 -18 -11 -4 -65 -25 -120 -44 -55 -20 -133 -50
-174 -66 -40 -16 -77 -26 -82 -23 -5 3 -9 0 -9 -5 0 -6 -8 -11 -17 -11 -10 0
-31 -7 -47 -15 -15 -8 -37 -15 -47 -15 -11 0 -19 -5 -19 -11 0 -6 -7 -9 -15
-5 -8 3 -15 0 -15 -6 0 -6 -3 -9 -6 -6 -3 4 -17 0 -31 -7 -15 -8 -30 -12 -35
-9 -4 3 -8 0 -8 -6 0 -6 -3 -9 -8 -7 -4 3 -23 -3 -43 -12 l-37 -18 -48 111
c-27 61 -49 113 -50 116 -1 6 -14 38 -48 113 -14 31 -26 58 -25 60 0 1 -13 33
-30 70 -17 38 -31 75 -31 83 0 8 -5 14 -12 14 -6 0 -8 3 -5 7 4 3 0 15 -10 25
-9 10 -13 18 -10 18 3 0 -8 30 -25 68 -16 37 -39 86 -49 109 -10 23 -19 45
-19 48 0 3 -11 30 -24 58 -29 64 -96 218 -100 232 -11 35 -32 75 -39 75 -4 0
-6 4 -3 8 3 5 -1 21 -9 36 -8 15 -42 94 -76 174 -34 81 -66 158 -72 172 -5 14
-10 28 -9 33 1 4 -2 7 -7 7 -7 0 -16 20 -26 60 0 3 -8 19 -17 35 -9 17 -46
102 -82 189 -37 88 -72 166 -78 173 -6 7 -7 13 -4 13 4 0 1 12 -7 28 -8 15
-21 43 -30 62 -8 19 -25 58 -37 85 -11 28 -21 55 -21 60 0 6 -6 17 -13 25 -6
8 -27 53 -46 100 -18 47 -37 89 -42 95 -4 5 -8 17 -8 26 0 9 -7 22 -15 29 -8
7 -13 15 -10 19 2 4 -2 18 -9 32 -6 13 -27 60 -45 104 -43 103 -54 117 -76 96z
m-1054 -6723 c4 -32 -12 -371 -17 -380 -5 -7 -126 70 -132 85 -2 4 -10 7 -18
7 -8 0 -14 3 -14 8 0 4 -30 27 -66 51 l-66 45 26 23 c15 13 34 23 42 23 8 0
14 4 14 9 0 5 14 14 30 21 17 7 30 16 30 21 0 5 4 9 10 9 5 0 18 7 27 15 10 8
21 15 26 15 4 0 26 13 49 30 45 33 57 36 59 18z m509 -145 c25 -43 56 -98 70
-123 14 -25 45 -79 69 -121 l45 -76 85 -21 c48 -12 128 -31 179 -43 50 -12 92
-25 92 -29 0 -7 -47 -50 -55 -50 -7 0 -25 -15 -60 -48 -14 -12 -27 -22 -31
-21 -3 0 -17 -8 -30 -20 -13 -11 -24 -19 -24 -16 0 2 -15 -9 -32 -26 -18 -16
-38 -29 -45 -29 -7 0 -13 -4 -13 -8 0 -5 -16 -17 -35 -28 -19 -10 -35 -21 -35
-24 0 -4 -13 -16 -29 -28 -30 -22 -57 -21 -58 1 -2 24 -10 72 -16 87 -8 23
-21 92 -21 118 0 12 -3 22 -6 22 -3 0 -6 8 -7 18 -1 19 -10 74 -18 112 -3 14
-7 36 -10 50 -5 27 -12 60 -20 100 -2 14 -7 39 -10 55 -3 17 -7 41 -10 55 -12
50 -17 76 -20 100 -2 14 -4 25 -5 25 -1 0 -3 10 -6 23 -7 41 12 22 56 -55z"/>
</g>
</svg>
